<?xml version="1.0" encoding="UTF-8"?>
<!DOCTYPE svg PUBLIC "-//W3C//DTD SVG 1.1//EN" "http://www.w3.org/Graphics/SVG/1.1/DTD/svg11.dtd">
<!-- Creator: CorelDRAW 2020 (64 Bit) -->
<svg xmlns="http://www.w3.org/2000/svg" xml:space="preserve" width="297mm" height="210mm" version="1.1" style="shape-rendering:geometricPrecision; text-rendering:geometricPrecision; image-rendering:optimizeQuality; fill-rule:evenodd; clip-rule:evenodd"
viewBox="0 0 29700 21000"
 xmlns:xlink="http://www.w3.org/1999/xlink"
 xmlns:xodm="http://www.corel.com/coreldraw/odm/2003">
 <defs>
  <style type="text/css">
   <![CDATA[
    .str0 {stroke:#CC726F;stroke-width:17.64;stroke-miterlimit:22.926}
    .fil1 {fill:none}
    .fil3 {fill:#1D1D1B}
    .fil2 {fill:#B2B2B2}
    .fil0 {fill:#CC726F}
   ]]>
  </style>
 </defs>
 <g id="Camada_x0020_1">
  <metadata id="CorelCorpID_0Corel-Layer"/>
  <path class="fil0" d="M15071.06 10429.13c0,-372.56 63.29,-730.32 190.78,-1074.17 127.46,-342.9 307.31,-639.37 538.55,-888.4 202.61,-220.38 424.93,-384.42 666.01,-493.08 241.13,-109.75 503.98,-164.04 787.62,-164.04 494.1,0 884.41,155.19 1171.01,466.41 286.56,310.3 429.86,732.23 429.86,1264.85 0,793.54 -206.52,1443.8 -620.58,1952.68 -414.05,508.96 -936.8,762.89 -1568.23,762.89 -498.09,0 -888.4,-162.03 -1171.01,-485.21 -282.65,-323.11 -424.01,-770.79 -424.01,-1341.93zm2205.71 -2436.91c-277.67,0 -524.76,49.42 -741.15,149.22 -215.41,98.81 -422.98,258.9 -622.58,479.25 -202.53,225.39 -359.7,496.15 -471.35,811.35 -111.69,315.25 -168.03,650.21 -168.03,1003.02 0,513.81 122.56,914.07 367.63,1202.61 245.08,288.57 585.05,432.86 1018.82,432.86 571.19,0 1046.52,-236.19 1425.01,-707.57 378.46,-472.37 567.24,-1077.12 567.24,-1816.33 0,-482.22 -122.56,-861.66 -367.63,-1139.34 -245.08,-276.75 -581.03,-415.07 -1007.96,-415.07zm-3471.32 4162.27l906.13 -4264.01 202.6 0 -909.17 4264.01 -199.56 0zm-2779.61 -2211.55l961.53 0c337.96,0 574.11,-10.87 709.54,-33.55 134.38,-21.8 251,-60.33 349.82,-113.7 160.05,-86.96 282.57,-207.51 366.64,-360.65 83.96,-153.21 125.52,-333.02 125.52,-539.61 0,-289.49 -91.97,-498.01 -274.75,-626.49 -183.79,-128.45 -484.22,-192.73 -903.25,-192.73l-937.82 0 -397.23 1866.73zm-671.94 2211.55l903.19 -4264.01 959.55 0c561.31,0 955.57,78.03 1182.87,234.13 228.28,157.17 341.91,415.12 341.91,775.76 0,307.34 -79.1,558.34 -237.21,753.08 -158.12,195.61 -393.24,330.97 -705.52,408.05 163.97,72.22 281.66,162.11 353.8,272.74 72.11,109.71 108.66,255.93 108.66,439.72 0,103.83 -10.87,273.76 -32.67,508.96 -22.69,236.18 -33.55,417.05 -33.55,544.55 0,71.08 7.94,128.37 22.79,171.9 15.8,43.43 39.47,80.05 72.07,108.66l0 46.46 -228.25 0c-22.75,-44.45 -39.54,-90.88 -50.41,-140.3 -10.86,-49.42 -15.8,-102.83 -15.8,-161.04 0,-140.37 9.88,-326.18 28.68,-555.42 18.73,-229.27 28.64,-390.27 28.64,-483.16 0,-257 -76.05,-435.85 -228.31,-538.61 -153.11,-101.78 -433.85,-153.18 -842.9,-153.18l-990.21 0 -434.73 2031.71 -202.6 0zm-1083.84 -4678.07l-176.84 0 706.51 -949.68 254.91 0 -784.58 949.68zm-2507.05 4678.07l214.42 0 816.22 -1410.12 1933.9 0 249.06 1410.12 190.71 0 -735.19 -4264.01 -202.6 0 -2466.52 4264.01zm1137.4 -1600.87l1797.54 0 -416 -2399.27 -1381.54 2399.27zm-1757.82 1600.87l906.21 -4264.01 202.6 0 -909.14 4264.01 -199.67 0zm-3854.66 0l903.18 -4264.01 634.4 0c488.21,0 842.93,29.66 1064.3,87.94 220.34,59.3 411.06,159.11 571.22,300.43 171.91,148.16 300.35,333.02 384.35,554.35 84.07,220.35 125.48,484.23 125.48,791.57 0,413.06 -72.11,795.44 -215.4,1149.19 -144.26,352.78 -348.83,647.32 -615.64,882.48 -202.6,179.84 -437.72,307.34 -704.6,383.43 -267.76,76.1 -729.33,114.62 -1385.43,114.62l-761.86 0zm231.25 -176.85l701.6 0c443.69,0 784.58,-26.67 1022.78,-80.08 239.07,-52.35 446.61,-141.32 624.45,-264.76 287.62,-198.72 509.94,-475.4 667.07,-832.09 157.16,-355.81 236.18,-761.89 236.18,-1219.48 0,-295.41 -47.41,-547.44 -142.31,-754.94 -93.87,-208.49 -237.14,-377.51 -427.85,-506.94 -127.49,-87.03 -281.66,-149.26 -462.46,-186.8 -179.84,-37.5 -439.73,-56.34 -776.71,-56.34l-611.71 0 -831.04 3901.43z"/>
  <path class="fil1 str0" d="M15071.06 10429.13c0,-372.56 63.29,-730.32 190.78,-1074.17 127.46,-342.9 307.31,-639.37 538.55,-888.4 202.61,-220.38 424.93,-384.42 666.01,-493.08 241.13,-109.75 503.98,-164.04 787.62,-164.04 494.1,0 884.41,155.19 1171.01,466.41 286.56,310.3 429.86,732.23 429.86,1264.85 0,793.54 -206.52,1443.8 -620.58,1952.68 -414.05,508.96 -936.8,762.89 -1568.23,762.89 -498.09,0 -888.4,-162.03 -1171.01,-485.21 -282.65,-323.11 -424.01,-770.79 -424.01,-1341.93zm2205.71 -2436.91c-277.67,0 -524.76,49.42 -741.15,149.22 -215.41,98.81 -422.98,258.9 -622.58,479.25 -202.53,225.39 -359.7,496.15 -471.35,811.35 -111.69,315.25 -168.03,650.21 -168.03,1003.02 0,513.81 122.56,914.07 367.63,1202.61 245.08,288.57 585.05,432.86 1018.82,432.86 571.19,0 1046.52,-236.19 1425.01,-707.57 378.46,-472.37 567.24,-1077.12 567.24,-1816.33 0,-482.22 -122.56,-861.66 -367.63,-1139.34 -245.08,-276.75 -581.03,-415.07 -1007.96,-415.07zm-3471.32 4162.27l906.13 -4264.01 202.6 0 -909.17 4264.01 -199.56 0zm-2779.61 -2211.55l961.53 0c337.96,0 574.11,-10.87 709.54,-33.55 134.38,-21.8 251,-60.33 349.82,-113.7 160.05,-86.96 282.57,-207.51 366.64,-360.65 83.96,-153.21 125.52,-333.02 125.52,-539.61 0,-289.49 -91.97,-498.01 -274.75,-626.49 -183.79,-128.45 -484.22,-192.73 -903.25,-192.73l-937.82 0 -397.23 1866.73zm-671.94 2211.55l903.19 -4264.01 959.55 0c561.31,0 955.57,78.03 1182.87,234.13 228.28,157.17 341.91,415.12 341.91,775.76 0,307.34 -79.1,558.34 -237.21,753.08 -158.12,195.61 -393.24,330.97 -705.52,408.05 163.97,72.22 281.66,162.11 353.8,272.74 72.11,109.71 108.66,255.93 108.66,439.72 0,103.83 -10.87,273.76 -32.67,508.96 -22.69,236.18 -33.55,417.05 -33.55,544.55 0,71.08 7.94,128.37 22.79,171.9 15.8,43.43 39.47,80.05 72.07,108.66l0 46.46 -228.25 0c-22.75,-44.45 -39.54,-90.88 -50.41,-140.3 -10.86,-49.42 -15.8,-102.83 -15.8,-161.04 0,-140.37 9.88,-326.18 28.68,-555.42 18.73,-229.27 28.64,-390.27 28.64,-483.16 0,-257 -76.05,-435.85 -228.31,-538.61 -153.11,-101.78 -433.85,-153.18 -842.9,-153.18l-990.21 0 -434.73 2031.71 -202.6 0zm-1083.84 -4678.07l-176.84 0 706.51 -949.68 254.91 0 -784.58 949.68zm-2507.05 4678.07l214.42 0 816.22 -1410.12 1933.9 0 249.06 1410.12 190.71 0 -735.19 -4264.01 -202.6 0 -2466.52 4264.01zm1137.4 -1600.87l1797.54 0 -416 -2399.27 -1381.54 2399.27zm-1757.82 1600.87l906.21 -4264.01 202.6 0 -909.14 4264.01 -199.67 0zm-3854.66 0l903.18 -4264.01 634.4 0c488.21,0 842.93,29.66 1064.3,87.94 220.34,59.3 411.06,159.11 571.22,300.43 171.91,148.16 300.35,333.02 384.35,554.35 84.07,220.35 125.48,484.23 125.48,791.57 0,413.06 -72.11,795.44 -215.4,1149.19 -144.26,352.78 -348.83,647.32 -615.64,882.48 -202.6,179.84 -437.72,307.34 -704.6,383.43 -267.76,76.1 -729.33,114.62 -1385.43,114.62l-761.86 0zm231.25 -176.85l701.6 0c443.69,0 784.58,-26.67 1022.78,-80.08 239.07,-52.35 446.61,-141.32 624.45,-264.76 287.62,-198.72 509.94,-475.4 667.07,-832.09 157.16,-355.81 236.18,-761.89 236.18,-1219.48 0,-295.41 -47.41,-547.44 -142.31,-754.94 -93.87,-208.49 -237.14,-377.51 -427.85,-506.94 -127.49,-87.03 -281.66,-149.26 -462.46,-186.8 -179.84,-37.5 -439.73,-56.34 -776.71,-56.34l-611.71 0 -831.04 3901.43z"/>
  <path class="fil2" d="M22077.32 12095.16l1221.34 0 361.7 -3155.23c0,119.56 2.05,230.22 5.93,330.98 3.99,101.81 9.91,182.84 17.78,245.11l330.13 2579.14 937.79 0 1085.99 -2556.39c30.62,-75.14 63.22,-164.04 97.82,-267.86 34.61,-102.77 68.23,-213.36 101.82,-330.98l-573.16 3155.23 1209.5 0 622.58 -4264.01 -1673.02 0 -1018.78 2307.41c-31.61,65.27 -58.35,140.37 -80.08,225.32 -21.73,85.02 -40.54,181.78 -56.27,289.48 1.87,-22.68 2.93,-47.34 3.92,-74.05 0.98,-25.71 2.01,-63.21 2.01,-113.62 0,-56.34 -2.01,-112.67 -5.01,-167.95 -3,-56.38 -6.92,-109.79 -12.84,-162.07l-286.57 -2304.52 -1658.19 0 -634.39 4264.01zm-3323.45 0l645.37 -4264.01 2999.06 0 -164.99 1045.49 -1658.19 0 -107.7 674.94 1410.15 0 -159.06 1015.88 -1401.27 0 -223.38 1527.7 -1339.99 0z"/>
  <path class="fil0" d="M25667.75 13085.1c0,146.61 39.09,264.4 117.26,353.3 78.21,88.94 180.62,133.64 306.81,133.64 153.57,0 282.54,-59.62 386.37,-178.83 104.24,-119.1 156.42,-269.03 156.42,-449.65 0,-152.19 -41.42,-274.67 -124.32,-368.19 -82.38,-93.59 -190.36,-140.62 -323.11,-140.62 -147.96,0 -271.82,61.91 -370.98,185.31 -99.13,123.83 -148.45,278.84 -148.45,465.04zm983.12 175.93c-51.65,122.87 -127.56,218.82 -227.12,287.69 -99.2,69.32 -211.84,103.82 -337.5,103.82 -148.94,0 -271.43,-51.19 -367.38,-154.09 -95.78,-102.91 -143.73,-232.73 -143.73,-390.07 0,-226.27 56.73,-409.61 170.36,-549.8 113.56,-140.09 261.13,-209.87 441.68,-209.87 180.16,0 318.91,63.29 416.21,190.39 97.29,126.61 145.69,307.62 145.69,543.21 0,166.65 -20.03,329.11 -60.04,486.9 -40.04,158.29 -96.38,299.79 -168.94,424.54 -67.56,113.63 -147.15,199.67 -239.33,258.34 -92.14,58.66 -195.05,88.01 -309.07,88.01 -135.96,0 -243.45,-40.99 -321.7,-122.94 -78.17,-81.88 -120.96,-198.3 -129.36,-349.14l80.5 0c12.56,130.84 50.77,229.51 114.02,296.05 62.83,66.64 150.39,99.66 262.15,99.66 172.69,0 320.25,-89.82 442.67,-269.98 121.95,-180.17 199.21,-424.54 230.89,-732.72zm-1766.99 1033.92l51.71 -245.36 114.48 0 -48.86 245.36 -117.33 0zm-1452.28 0c10.76,-137.37 54.92,-259.79 131.72,-366.86 76.8,-107.49 198.83,-215.01 366.4,-323.03 44.17,-28.37 108.87,-67.91 193.64,-118.71 182.49,-109.4 305.79,-194.14 369.53,-255.1 61.95,-59.12 108.94,-121.95 142.07,-189.02 32.52,-66.99 48.86,-134.51 48.86,-202.46 0,-119.16 -39.62,-217.38 -118.71,-294.64 -79.17,-77.25 -180.63,-115.99 -304.45,-115.99 -141.5,0 -257.92,43.32 -347.73,129.44 -89.82,86.64 -148.95,210.89 -177.38,373.8l-86.11 0c27.44,-183.87 94.51,-326.32 202.03,-428.24 107.07,-101.92 243.52,-152.72 409.19,-152.72 150.81,0 274.21,45.65 369.15,136.42 94.96,90.77 142.45,208.07 142.45,351.93 0,229.03 -203.91,469.2 -611.26,720.13l-33.97 20.5c-217.35,132.68 -366.29,244.44 -447.29,335.17 -81.03,91.16 -126.65,189.41 -136.38,296.05l1017.51 0 -17.64 83.33 -1111.63 0zm-1138.98 -1209.85c0,146.61 39.09,264.4 117.26,353.3 78.25,88.94 180.62,133.64 306.81,133.64 153.53,0 282.54,-59.62 386.33,-178.83 104.28,-119.1 156.42,-269.03 156.42,-449.65 0,-152.19 -41.42,-274.67 -124.28,-368.19 -82.41,-93.59 -190.4,-140.62 -323.08,-140.62 -148.02,0 -271.81,61.91 -370.98,185.31 -99.2,123.83 -148.48,278.84 -148.48,465.04zm983.08 175.93c-51.64,122.87 -127.53,218.82 -227.11,287.69 -99.21,69.32 -211.85,103.82 -337.51,103.82 -148.94,0 -271.42,-51.19 -367.27,-154.09 -95.89,-102.91 -143.83,-232.73 -143.83,-390.07 0,-226.27 56.73,-409.61 170.32,-549.8 113.59,-140.09 261.2,-209.87 441.78,-209.87 180.17,0 318.84,63.29 416.14,190.39 97.3,126.61 145.77,307.62 145.77,543.21 0,166.65 -20.11,329.11 -60.08,486.9 -40.04,158.29 -96.41,299.79 -168.95,424.54 -67.55,113.63 -147.17,199.67 -239.32,258.34 -92.11,58.66 -195.09,88.01 -309.1,88.01 -135.93,0 -243.46,-40.99 -321.63,-122.94 -78.25,-81.88 -121.03,-198.3 -129.36,-349.14l80.43 0c12.56,130.84 50.73,229.51 114.02,296.05 62.93,66.64 150.39,99.66 262.15,99.66 172.68,0 320.25,-89.82 442.66,-269.98 121.96,-180.17 199.28,-424.54 230.89,-732.72z"/>
  <path class="fil1 str0" d="M25667.75 13085.1c0,146.61 39.09,264.4 117.26,353.3 78.21,88.94 180.62,133.64 306.81,133.64 153.57,0 282.54,-59.62 386.37,-178.83 104.24,-119.1 156.42,-269.03 156.42,-449.65 0,-152.19 -41.42,-274.67 -124.32,-368.19 -82.38,-93.59 -190.36,-140.62 -323.11,-140.62 -147.96,0 -271.82,61.91 -370.98,185.31 -99.13,123.83 -148.45,278.84 -148.45,465.04zm983.12 175.93c-51.65,122.87 -127.56,218.82 -227.12,287.69 -99.2,69.32 -211.84,103.82 -337.5,103.82 -148.94,0 -271.43,-51.19 -367.38,-154.09 -95.78,-102.91 -143.73,-232.73 -143.73,-390.07 0,-226.27 56.73,-409.61 170.36,-549.8 113.56,-140.09 261.13,-209.87 441.68,-209.87 180.16,0 318.91,63.29 416.21,190.39 97.29,126.61 145.69,307.62 145.69,543.21 0,166.65 -20.03,329.11 -60.04,486.9 -40.04,158.29 -96.38,299.79 -168.94,424.54 -67.56,113.63 -147.15,199.67 -239.33,258.34 -92.14,58.66 -195.05,88.01 -309.07,88.01 -135.96,0 -243.45,-40.99 -321.7,-122.94 -78.17,-81.88 -120.96,-198.3 -129.36,-349.14l80.5 0c12.56,130.84 50.77,229.51 114.02,296.05 62.83,66.64 150.39,99.66 262.15,99.66 172.69,0 320.25,-89.82 442.67,-269.98 121.95,-180.17 199.21,-424.54 230.89,-732.72zm-1766.99 1033.92l51.71 -245.36 114.48 0 -48.86 245.36 -117.33 0zm-1452.28 0c10.76,-137.37 54.92,-259.79 131.72,-366.86 76.8,-107.49 198.83,-215.01 366.4,-323.03 44.17,-28.37 108.87,-67.91 193.64,-118.71 182.49,-109.4 305.79,-194.14 369.53,-255.1 61.95,-59.12 108.94,-121.95 142.07,-189.02 32.52,-66.99 48.86,-134.51 48.86,-202.46 0,-119.16 -39.62,-217.38 -118.71,-294.64 -79.17,-77.25 -180.63,-115.99 -304.45,-115.99 -141.5,0 -257.92,43.32 -347.73,129.44 -89.82,86.64 -148.95,210.89 -177.38,373.8l-86.11 0c27.44,-183.87 94.51,-326.32 202.03,-428.24 107.07,-101.92 243.52,-152.72 409.19,-152.72 150.81,0 274.21,45.65 369.15,136.42 94.96,90.77 142.45,208.07 142.45,351.93 0,229.03 -203.91,469.2 -611.26,720.13l-33.97 20.5c-217.35,132.68 -366.29,244.44 -447.29,335.17 -81.03,91.16 -126.65,189.41 -136.38,296.05l1017.51 0 -17.64 83.33 -1111.63 0zm-1138.98 -1209.85c0,146.61 39.09,264.4 117.26,353.3 78.25,88.94 180.62,133.64 306.81,133.64 153.53,0 282.54,-59.62 386.33,-178.83 104.28,-119.1 156.42,-269.03 156.42,-449.65 0,-152.19 -41.42,-274.67 -124.28,-368.19 -82.41,-93.59 -190.4,-140.62 -323.08,-140.62 -148.02,0 -271.81,61.91 -370.98,185.31 -99.2,123.83 -148.48,278.84 -148.48,465.04zm983.08 175.93c-51.64,122.87 -127.53,218.82 -227.11,287.69 -99.21,69.32 -211.85,103.82 -337.51,103.82 -148.94,0 -271.42,-51.19 -367.27,-154.09 -95.89,-102.91 -143.83,-232.73 -143.83,-390.07 0,-226.27 56.73,-409.61 170.32,-549.8 113.59,-140.09 261.2,-209.87 441.78,-209.87 180.17,0 318.84,63.29 416.14,190.39 97.3,126.61 145.77,307.62 145.77,543.21 0,166.65 -20.11,329.11 -60.08,486.9 -40.04,158.29 -96.41,299.79 -168.95,424.54 -67.55,113.63 -147.17,199.67 -239.32,258.34 -92.11,58.66 -195.09,88.01 -309.1,88.01 -135.93,0 -243.46,-40.99 -321.63,-122.94 -78.25,-81.88 -121.03,-198.3 -129.36,-349.14l80.43 0c12.56,130.84 50.73,229.51 114.02,296.05 62.93,66.64 150.39,99.66 262.15,99.66 172.68,0 320.25,-89.82 442.66,-269.98 121.96,-180.17 199.28,-424.54 230.89,-732.72z"/>
  <path class="fil3" d="M2202.4 13688.83c0,-173.42 46.5,-309.1 139.63,-407.1 92.89,-97.83 212.84,-146.93 359.91,-147.11l0 118.89c-97.4,0.31 -180.98,33.86 -251.21,100.85 -70.56,67.21 -105.8,179.53 -105.8,336.59 0,126.01 33.79,225 101.39,297.53 67.91,72.39 152.71,108.66 254.88,108.66l0.74 0 0 118.21c-98.5,0 -186.3,-23.63 -263.63,-71.22 -77.61,-47.41 -136.14,-112.4 -176,-194.63 -39.94,-81.88 -59.91,-168.98 -59.91,-260.67zm1887.19 -264.72l0 100.08c-53.45,1.06 -100.75,26.6 -141.92,76.55 -42.09,51.12 -63.01,125.52 -63.01,222.85 0,97.23 19.69,169.23 59.13,215.87 39.33,46.5 87.27,69.92 143.22,69.92l2.58 0 0 105.23c-40.39,-0.77 -76.62,-9.8 -109.11,-26.98 -34.05,-18.03 -61.78,-40.86 -83.68,-68.37l0 368.26 -128.2 0 0 -1046.44 116.7 0 0 98.21c27.51,-38.45 58.66,-67.38 93.48,-86.57 30.87,-17.22 67.88,-26.81 110.81,-28.61zm-1387.65 -289.49l0.77 0c96.24,0 183.34,23.07 260.67,69 77.37,46.25 136.39,110.42 176.99,192.9 40.64,82.16 60.82,175.83 60.82,280.14 0,106.08 -21.17,200.91 -63.96,284.31 -42.79,83.71 -103.33,146.86 -181.64,189.97 -78.57,43 -162.95,64.41 -253.65,64.41l0 -118.21c103.71,-0.18 189.05,-36.58 256.04,-109.72 67.21,-73.16 100.97,-176.98 100.97,-311.5 0,-84.84 -14.57,-159.07 -43.32,-222.57 -28.65,-63.39 -70.7,-112.57 -125.91,-147.49 -55.49,-34.79 -117.47,-52.35 -186.37,-52.35l-1.41 0 0 -118.89zm1876.78 1062.95l0 -756.49 115.28 0 0 114.47c29.43,-53.55 56.66,-88.97 81.74,-106.01 24.77,-17.11 52.28,-25.78 82.2,-25.78 43.25,0 86.99,13.86 131.76,41.31l-44.24 119.16c-31.18,-18.73 -62.47,-27.94 -93.91,-27.94 -28.15,0 -53.27,8.58 -75.56,25.33 -22.44,17.01 -38.21,40.36 -47.77,70.24 -14.28,45.4 -21.38,95.36 -21.38,149.54l0 396.17 -128.12 0zm-489.13 17.04l0 -105.23c55.74,-0.71 103.82,-24.84 143.79,-72.5 40.61,-48.22 61.1,-122.87 61.1,-224.08 0,-96.52 -20.03,-168.45 -59.65,-216.68 -39.58,-47.83 -87.03,-71.93 -141.99,-71.93l-3.25 0 0 -100.08 15.17 -0.35c64.63,0 121.53,16.79 170.92,49.84 49.64,33.31 86.82,80.26 111.94,140.83 25.22,60.54 37.85,126.93 37.85,199.15 0,77.32 -13.86,147.1 -41.77,209.12 -27.69,62.02 -68.16,109.47 -121.18,142.56 -52.99,32.84 -108.65,49.42 -167.07,49.42l-5.86 -0.07zm1264.6 -457.34l0 106.96 -14.5 2.16c-52.81,7.55 -90.27,15.98 -111.79,25.57 -21.91,9.42 -38.98,23.29 -50.59,41.74 -11.92,18.31 -18.1,38.52 -18.1,60.82 0,34.36 13.2,62.75 38.95,85.61 25.75,22.62 63.75,34.05 113.63,34.05 14.57,0 28.75,-0.95 42.4,-2.86l0 97.12c-23.6,4.16 -47.91,6.24 -73.02,6.24 -83.26,0 -146.93,-20.21 -191.7,-60.81 -44.49,-40.64 -66.85,-92.68 -66.85,-155.72 0,-37.18 8.18,-71.02 25.26,-101.6 16.75,-30.69 38.94,-55.28 66.21,-73.73 27.45,-18.49 58.07,-32.53 92.36,-42.02 25.01,-6.63 63,-13.16 113.8,-19.26l33.94 -4.27zm0 -332.77l0 105.76c-53.58,1.41 -93.73,11.78 -120.51,31.4 -28.68,21.13 -49.81,58.63 -63.74,112.39l-125.28 -17.28c11.54,-53.56 30.17,-97.05 56.2,-129.9 26.11,-33.12 64,-58.56 113.31,-76.37 41.24,-14.82 87.88,-23.53 140.02,-26zm455.65 773.07l0 -104.07 481.67 -552.76c-54.71,2.93 -102.89,4.12 -144.63,4.12l-308.61 0 0 -103.78 618.45 0 0 84.56 -409.57 480.23 -79.02 87.63c57.36,-4.16 111.34,-6.27 161.68,-6.27l349.73 0 0 110.34 -669.7 0zm-455.65 10.87l0 -97.12c32.49,-4.48 62.34,-14.29 89.4,-29.53 38.41,-21.59 66.85,-51.22 84.87,-88.69 13.83,-28.96 20.68,-71.75 20.68,-128.2l0 -47.16c-44.24,18.17 -109.29,33.58 -194.95,46.49l0 -106.96c86.57,-11.46 151.56,-24.69 194.95,-39.97 0.46,-17.53 0.7,-28.75 0.7,-33.37 0,-52.21 -12.13,-89.22 -36.47,-110.42 -32.67,-29.14 -81.46,-43.46 -145.95,-43.46l-13.23 0.21 0 -105.76c10.37,-0.46 20.89,-0.74 31.72,-0.74 64.7,0 116.98,7.76 157.37,22.86 40.32,15.34 69.99,34.32 89.25,57.43 18.98,23.07 32.14,52.03 39.87,87.28 4.16,21.94 6.31,61.27 6.31,118.18l0 170.99c0,119.41 2.72,194.8 8.26,226.13 5.39,31.71 16.33,62.02 32.38,90.94l-134.05 0c-13.06,-26.45 -21.88,-57.6 -25.51,-93.34 -47.66,40.43 -93.38,68.79 -137.16,85.55 -22.05,8.25 -44.8,14.5 -68.44,18.66zm1561.07 -784.68l0 105.51c-57.08,0.92 -105.45,20.64 -144.57,59.13 -40.15,39.44 -62.34,92.11 -66.67,158.04l211.24 0 0 105.59 -218.26 0c4.55,83.18 28.15,146.9 70.48,190.89 40.01,41.87 89.11,63.92 147.78,66.28l0 105.34c-106.15,-1.94 -190.78,-35.95 -253.58,-102.06 -64.87,-68.12 -97.33,-163.68 -97.33,-286.77 0,-127.39 32.92,-226.13 98.36,-296.44 65.19,-69.67 149.15,-104.91 252.55,-105.51zm502.07 773.81l0 -756.49 115.25 0 0 114.47c29.46,-53.55 56.73,-88.97 81.67,-106.01 24.8,-17.11 52.32,-25.78 82.24,-25.78 43.25,0 87.03,13.86 131.83,41.31l-44.28 119.16c-31.15,-18.73 -62.44,-27.94 -93.87,-27.94 -28.22,0 -53.27,8.58 -75.63,25.33 -22.44,17.01 -38.18,40.36 -47.67,70.24 -14.39,45.4 -21.41,95.36 -21.41,149.54l0 396.17 -128.13 0zm-502.07 -345.54l0 -105.59 211.21 0c-5.61,-63.5 -21.95,-111.33 -48.4,-142.94 -40.86,-49.39 -93.88,-74.23 -158.79,-74.23l-4.02 0 0 -105.51 2.47 0c101.21,0 183.97,34.5 247.97,103.36 64.13,68.83 96.23,165.88 96.23,290.62 0,7.79 -0.24,19.19 -0.77,34.29l-345.9 0zm0 362.51l0 -105.34 10.34 0.18c46.99,0 87.03,-12.49 120.4,-37.25 33.3,-24.56 59.51,-63.93 79.02,-118.15l132.57 16.19c-20.95,77.61 -59.65,137.66 -116.06,180.52 -56.62,42.58 -128.9,63.99 -216.71,63.99l-9.56 -0.14zm1684.09 -790.4l0 105.91 -3.67 0c-56.97,0 -104.63,23.28 -142.84,69.81 -38.1,46.43 -57.29,119.84 -57.29,220.03 0,97.05 20.36,169.55 61.28,217.45 40.25,47.31 87.73,71.48 142.52,72.04l0 105.09 -10.02 0.21c-60.29,0 -115.71,-16.58 -166.4,-49.88 -50.52,-33.09 -89.75,-79.55 -117.66,-139.38 -27.69,-59.59 -41.55,-127.95 -41.55,-205.53 0,-75.32 12.63,-143.97 37.71,-205.46 25.26,-61.56 62.97,-108.69 113.31,-141.36 50.31,-32.77 106.75,-49.31 168.98,-49.31l15.63 0.38zm0 790.33l0 -105.09 2.08 0c55.99,0 103.65,-23.07 142.88,-68.9 39.08,-45.68 58.8,-115.74 58.8,-209.87 0,-103.61 -19.96,-179.52 -59.83,-227.85 -39.05,-47.59 -87.03,-71.65 -143.93,-72.71l0 -105.91c39.19,1.98 74.58,11.54 106.01,28.58 35.7,19.19 64.63,44.24 87.03,75.14l0 -374.72 127.46 0 0 1044.43 -118.89 0 0 -95.53c-46.25,72.39 -113.42,109.79 -201.61,112.43zm830.37 -790.71l0 105.51c-57.12,0.92 -105.41,20.64 -144.64,59.13 -40.15,39.44 -62.27,92.11 -66.61,158.04l211.25 0 0 105.59 -218.34 0c4.63,83.18 28.23,146.9 70.59,190.89 39.97,41.87 89.08,63.92 147.75,66.28l0 105.34c-106.22,-1.94 -190.75,-35.95 -253.58,-102.06 -64.91,-68.12 -97.33,-163.68 -97.33,-286.77 0,-127.39 32.91,-226.13 98.35,-296.44 65.13,-69.67 149.16,-104.91 252.56,-105.51zm0 428.27l0 -105.59 211.21 0c-5.61,-63.5 -21.91,-111.33 -48.41,-142.94 -40.85,-49.39 -93.9,-74.23 -158.75,-74.23l-4.05 0 0 -105.51 2.47 0c101.21,0 183.87,34.5 247.89,103.36 64.17,68.83 96.24,165.88 96.24,290.62 0,7.79 -0.24,19.19 -0.7,34.29l-345.9 0zm0 362.51l0 -105.34 10.37 0.18c46.85,0 86.99,-12.49 120.3,-37.25 33.3,-24.56 59.58,-63.93 79.09,-118.15l132.57 16.19c-20.95,77.61 -59.65,137.66 -116.03,180.52 -56.72,42.58 -128.94,63.99 -216.74,63.99l-9.56 -0.14zm1215.46 -790.78l0 106.29c-63.82,0.14 -116.98,24.2 -159.17,71.93 -42.27,47.94 -63.47,120.4 -63.47,217.24 0,97.05 21.2,169.44 63.47,217.66 42.19,48.23 95.35,72.39 159.17,72.5l0 105.3c-105.59,-0.07 -191.03,-33.93 -256.4,-101.91 -65.44,-67.91 -98.11,-165.67 -98.11,-293.55 0,-140.09 38.98,-244.05 117.02,-311.29 64.91,-55.92 144,-84.1 237.49,-84.17zm2368.83 773.81l0 -756.49 115.32 0 0 114.47c29.46,-53.55 56.66,-88.97 81.67,-106.01 24.8,-17.11 52.28,-25.78 82.23,-25.78 43.25,0 87.03,13.86 131.77,41.31l-44.24 119.16c-31.15,-18.73 -62.51,-27.94 -93.84,-27.94 -28.22,0 -53.31,8.58 -75.67,25.33 -22.44,17.01 -38.17,40.36 -47.73,70.24 -14.29,45.4 -21.38,95.36 -21.38,149.54l0 396.17 -128.13 0zm-322.16 -756.49l128.34 0 0 756.49 -128.34 0 0 -756.49zm0 -287.94l128.34 0 0 147.53 -128.34 0 0 -147.53zm-520.03 1044.43l-287.93 -756.49 135.46 0 162.49 453.03c17.43,48.83 33.55,99.77 48.4,152.44 11.36,-39.86 27.24,-87.81 47.66,-143.93l168.21 -461.54 131.83 0 -286.49 756.49 -119.63 0zm-525.74 0l0 -111.16c-59.09,85.66 -139.1,128.27 -240.31,128.27 -44.49,0 -86.33,-8.6 -124.96,-25.54 -38.7,-17.07 -67.45,-38.73 -86.18,-64.52 -18.98,-26.04 -32.03,-57.57 -39.58,-95.04 -5.08,-25.36 -7.83,-65.23 -7.83,-119.94l0 -468.56 128.2 0 0 419.45c0,67.13 2.68,112.15 7.76,135.5 8.25,33.76 25.36,60.01 51.36,79.48 26.21,19.26 58.6,28.72 97.05,28.72 38.38,0 74.33,-9.81 108.23,-29.46 33.76,-19.65 57.61,-46.71 71.48,-80.43 14.04,-34.04 21.13,-83.47 21.13,-147.99l0 -405.27 128.2 0 0 756.49 -114.55 0zm-1000.9 17.11l0 -105.3 0.39 0c63.67,0 116.73,-24.41 159.03,-72.78 42.09,-48.4 63.22,-122.34 63.22,-221.51 0,-93.66 -21.13,-164.71 -63.75,-212.83 -42.47,-48.15 -95.29,-72.21 -158.5,-72.21l-0.39 0 0 -106.29 0.39 0c104.03,0 189.19,34.11 255.05,102.41 66.19,68.08 99.03,162.2 99.03,282.33 0,97.5 -14.64,174.13 -43.78,229.87 -29.21,55.95 -71.76,99.2 -127.42,129.99 -55.95,30.98 -116.74,46.32 -182.88,46.32l-0.39 0zm3582.16 -790.57l0 105.16c-54.88,0.85 -102.29,25.16 -142.51,72.99 -40.85,48.65 -61.31,119.17 -61.31,211.32 0,90.73 12.49,156.14 37.08,196.49 40.35,66.15 95,99.31 163.89,99.31l2.85 0 0 105.16c-85.5,-2.15 -152.95,-39.33 -202.27,-111.79l0 94.82 -118.95 0 0 -1044.43 128.12 0 0 372.5c51.19,-63.96 115.57,-97.9 193.1,-101.53zm0 790.43l0 -105.16c54.9,-0.85 102.38,-25.22 142.53,-73.31 40.88,-48.65 61.24,-121.04 61.24,-217.63 0,-98.74 -19.65,-171.66 -58.84,-218.58 -39.09,-46.99 -86.51,-70.59 -142,-70.59l-2.93 0 0 -105.16 14.19 -0.35c46.67,0 90.66,9.45 132.29,28.18 41.56,18.74 75.6,45.26 102.55,79.1 26.74,34 47.87,74.86 62.97,122.97 15.42,47.95 22.9,99.28 22.9,153.71 0,129.89 -32.14,230.05 -96.31,300.88 -63.96,70.77 -141.04,106.08 -230.79,106.08l-7.8 -0.14zm797.6 -790.78l0 106.29c-63.78,0.14 -116.98,24.2 -159.28,71.93 -42.19,47.94 -63.39,120.4 -63.39,217.24 0,97.05 21.2,169.44 63.39,217.66 42.3,48.23 95.5,72.39 159.28,72.5l0 105.3c-105.62,-0.07 -191.1,-33.93 -256.47,-101.91 -65.4,-67.91 -98.07,-165.67 -98.07,-293.55 0,-140.09 38.98,-244.05 117.01,-311.29 64.92,-55.92 144.01,-84.1 237.53,-84.17zm0 790.92l0 -105.3 0.39 0c63.64,0 116.7,-24.41 158.96,-72.78 42.16,-48.4 63.29,-122.34 63.29,-221.51 0,-93.66 -21.13,-164.71 -63.75,-212.83 -42.51,-48.15 -95.32,-72.21 -158.5,-72.21l-0.39 0 0 -106.29 0.39 0c104.03,0 189.16,34.11 255.06,102.41 66.21,68.08 98.95,162.2 98.95,282.33 0,97.5 -14.57,174.13 -43.74,229.87 -29.21,55.95 -71.76,99.2 -127.43,129.99 -55.91,30.98 -116.77,46.32 -182.84,46.32l-0.39 0zm793.08 -457.41l0 106.96 -14.53 2.16c-52.82,7.55 -90.25,15.98 -111.8,25.57 -21.91,9.42 -38.95,23.29 -50.66,41.74 -11.92,18.31 -18.03,38.52 -18.03,60.82 0,34.36 13.2,62.75 38.99,85.61 25.71,22.62 63.67,34.05 113.63,34.05 14.57,0 28.75,-0.95 42.4,-2.86l0 97.12c-23.64,4.16 -47.94,6.24 -73.13,6.24 -83.15,0 -146.86,-20.21 -191.67,-60.81 -44.48,-40.64 -66.88,-92.68 -66.88,-155.72 0,-37.18 8.29,-71.02 25.33,-101.6 16.75,-30.69 38.94,-55.28 66.21,-73.73 27.45,-18.49 58.07,-32.53 92.36,-42.02 25.01,-6.63 63.04,-13.16 113.84,-19.26l33.94 -4.27zm0 -332.77l0 105.76c-53.62,1.41 -93.73,11.78 -120.51,31.4 -28.75,21.13 -49.92,58.63 -63.75,112.39l-125.3 -17.28c11.46,-53.56 30.2,-97.05 56.19,-129.9 26.04,-33.12 64.03,-58.56 113.32,-76.37 41.24,-14.82 87.87,-23.53 140.05,-26zm4503.31 495.93l126.12 16.48c-13.72,86.82 -48.93,154.9 -105.83,204.01 -56.66,49.1 -126.51,73.76 -209.23,73.76 -103.3,0 -186.73,-33.86 -249.52,-101.45 -62.97,-67.6 -94.55,-164.65 -94.55,-291.05 0,-81.81 13.65,-153.28 40.57,-214.52 27.24,-61.28 68.37,-107.32 123.86,-137.97 55.18,-30.62 115.5,-45.93 180.41,-45.93 82.2,0 149.62,20.88 201.58,62.47 52.28,41.63 85.83,100.47 100.68,177.1l-124.7 19.19c-11.89,-50.8 -32.85,-88.97 -63.01,-114.76 -30.13,-25.54 -66.68,-38.49 -109.47,-38.49 -64.73,0 -117.23,23.14 -157.55,69.61 -40.39,46.24 -60.57,119.41 -60.57,219.56 0,101.67 19.47,175.58 58.56,221.8 38.98,46.07 89.82,69.14 152.54,69.14 50.34,0 92.15,-15.59 125.98,-46.5 33.83,-30.9 55.21,-78.31 64.13,-142.45zm-817.28 -479.35l128.34 0 0 756.49 -128.34 0 0 -756.49zm0 -287.94l128.34 0 0 147.53 -128.34 0 0 -147.53zm-781.47 818.55l126.79 -19.97c7.02,50.8 26.92,89.75 59.55,117.02 32.35,26.99 77.79,40.64 136.45,40.64 58.81,0 102.59,-12.24 131.02,-36.02 28.47,-24.09 42.87,-52.39 42.87,-84.42 0,-29.21 -12.67,-51.72 -38,-68.51 -17.5,-11.5 -61.24,-25.82 -130.98,-43.39 -93.91,-23.78 -159.35,-44.24 -195.58,-61.77 -36.31,-17.25 -64,-41.31 -82.7,-71.93 -18.73,-30.73 -28.22,-64.53 -28.22,-101.39 0,-33.83 7.73,-64.91 23.36,-93.66 15.34,-28.97 36.51,-52.85 62.97,-71.76 19.96,-14.57 47.23,-27.3 81.42,-37.46 34.61,-10.23 71.61,-15.31 110.91,-15.31 59.37,0 111.48,8.67 156.42,25.78 45.02,17.04 78.07,40.19 99.45,69.25 21.49,29.5 36.06,68.37 44.03,117.3l-125.27 17.22c-5.79,-38.88 -22.37,-69.32 -49.64,-91.19 -27.16,-21.91 -65.9,-32.85 -115.64,-32.85 -58.91,0 -101,9.74 -126.05,29.28 -25.29,19.37 -37.99,42.19 -37.99,68.23 0,16.79 5.4,31.68 15.91,45.01 10.44,13.9 26.7,25.09 49.07,34.26 12.88,4.62 50.55,15.63 113.38,32.67 90.67,24.3 153.88,44.02 189.66,59.55 35.98,15.31 64.27,37.95 84.63,67.34 20.42,29.39 30.62,65.93 30.62,109.64 0,42.87 -12.63,83.01 -37.47,120.94 -25.04,37.71 -60.99,66.92 -107.88,87.52 -46.99,20.71 -100.26,30.97 -159.56,30.97 -98.53,0 -173.42,-20.49 -225,-61.27 -51.54,-40.93 -84.35,-101.46 -98.53,-181.72zm-533.72 -624.87l94.83 -199.32 167.99 0 -156.53 199.32 -106.29 0zm269.45 850.75l0 -111.16c-59.12,85.66 -139.17,128.27 -240.31,128.27 -44.48,0 -86.32,-8.6 -125.02,-25.54 -38.7,-17.07 -67.38,-38.73 -86.12,-64.52 -18.9,-26.04 -32.06,-57.57 -39.61,-95.04 -5.08,-25.36 -7.8,-65.23 -7.8,-119.94l0 -468.56 128.27 0 0 419.45c0,67.13 2.58,112.15 7.73,135.5 8.25,33.76 25.29,60.01 51.33,79.48 26.21,19.26 58.59,28.72 97.05,28.72 38.38,0 74.4,-9.81 108.23,-29.46 33.72,-19.65 57.61,-46.71 71.47,-80.43 14.04,-34.04 21.13,-83.47 21.13,-147.99l0 -405.27 128.2 0 0 756.49 -114.55 0zm-1711.5 0l0 -756.49 114.62 0 0 105.94c23.78,-36.94 55.42,-66.85 94.83,-89.15 39.4,-22.72 84.35,-34.11 134.76,-34.11 55.88,0 101.85,11.67 137.62,34.99 36.02,23.36 61.27,55.78 75.91,97.54 60.01,-88.3 137.84,-132.53 233.68,-132.53 75.15,0 132.83,20.88 173.15,62.47 40.39,41.63 60.57,105.62 60.57,191.95l0 519.39 -127.42 0 0 -476.6c0,-51.33 -4.17,-88.37 -12.46,-110.98 -8.5,-22.3 -23.6,-40.5 -45.26,-54.44 -21.83,-13.65 -47.62,-20.67 -77.01,-20.67 -53.23,0 -97.26,17.82 -132.61,53.27 -34.99,35.24 -52.74,91.97 -52.74,169.83l0 439.59 -128.13 0 0 -491.52c0,-57.08 -10.47,-99.87 -31.43,-128.38 -20.95,-28.43 -54.96,-42.79 -102.62,-42.79 -35.99,0 -69.29,9.49 -99.91,28.75 -30.62,18.91 -53.06,46.68 -66.67,83.15 -13.83,36.69 -20.61,89.47 -20.61,158.26l0 392.53 -128.27 0zm-928.79 10.87l0 -97.12c32.46,-4.48 62.3,-14.29 89.36,-29.53 38.35,-21.59 66.85,-51.22 84.88,-88.69 13.86,-28.96 20.67,-71.75 20.67,-128.2l0 -47.16c-44.2,18.17 -109.26,33.58 -194.91,46.49l0 -106.96c86.5,-11.46 151.55,-24.69 194.91,-39.97 0.42,-17.53 0.74,-28.75 0.74,-33.37 0,-52.21 -12.17,-89.22 -36.51,-110.42 -32.63,-29.14 -81.49,-43.46 -145.95,-43.46l-13.19 0.21 0 -105.76c10.34,-0.46 20.85,-0.74 31.68,-0.74 64.63,0 116.98,7.76 157.34,22.86 40.36,15.34 70.02,34.32 89.29,57.43 18.98,23.07 32.06,52.03 39.86,87.28 4.16,21.94 6.31,61.27 6.31,118.18l0 170.99c0,119.41 2.65,194.8 8.26,226.13 5.33,31.71 16.33,62.02 32.38,90.94l-134.02 0c-13.08,-26.45 -21.87,-57.6 -25.57,-93.34 -47.63,40.43 -93.35,68.79 -137.13,85.55 -21.97,8.25 -44.8,14.5 -68.4,18.66zm5027.33 -451.17l0 106.96 -14.5 2.16c-52.74,7.55 -90.2,15.98 -111.79,25.57 -21.88,9.42 -38.99,23.29 -50.7,41.74 -11.82,18.31 -17.92,38.52 -17.92,60.82 0,34.36 13.19,62.75 38.88,85.61 25.78,22.62 63.74,34.05 113.63,34.05 14.64,0 28.75,-0.95 42.4,-2.86l0 97.12c-23.53,4.16 -47.94,6.24 -73.02,6.24 -83.26,0 -146.94,-20.21 -191.7,-60.81 -44.52,-40.64 -66.86,-92.68 -66.86,-155.72 0,-37.18 8.26,-71.02 25.3,-101.6 16.79,-30.69 38.91,-55.28 66.18,-73.73 27.41,-18.49 58.07,-32.53 92.39,-42.02 24.98,-6.63 62.97,-13.16 113.77,-19.26l33.94 -4.27zm0 -332.77l0 105.76c-53.59,1.41 -93.66,11.78 -120.44,31.4 -28.75,21.13 -49.92,58.63 -63.75,112.39l-125.34 -17.28c11.54,-53.56 30.2,-97.05 56.2,-129.9 26,-33.12 64.03,-58.56 113.38,-76.37 41.14,-14.82 87.81,-23.53 139.95,-26zm559.75 626.95l146.09 0 0 146.16 -146.09 0 0 -146.16zm-559.75 156.99l0 -97.12c32.53,-4.48 62.34,-14.29 89.43,-29.53 38.35,-21.59 66.89,-51.22 84.81,-88.69 13.93,-28.96 20.71,-71.75 20.71,-128.2l0 -47.16c-44.24,18.17 -109.26,33.58 -194.95,46.49l0 -106.96c86.5,-11.46 151.55,-24.69 194.95,-39.97 0.45,-17.53 0.7,-28.75 0.7,-33.37 0,-52.21 -12.13,-89.22 -36.48,-110.42 -32.56,-29.14 -81.42,-43.46 -145.87,-43.46l-13.3 0.21 0 -105.76c10.34,-0.46 20.96,-0.74 31.75,-0.74 64.66,0 116.95,7.76 157.34,22.86 40.39,15.34 70.06,34.32 89.32,57.43 18.91,23.07 31.96,52.03 39.87,87.28 4.16,21.94 6.28,61.27 6.28,118.18l0 170.99c0,119.41 2.64,194.8 8.25,226.13 5.36,31.71 16.3,62.02 32.42,90.94l-134.05 0c-13.16,-26.45 -21.95,-57.6 -25.55,-93.34 -47.62,40.43 -93.34,68.79 -137.12,85.55 -22.05,8.32 -44.91,14.5 -68.51,18.66z"/>
 </g>
</svg>
